<svg xmlns="http://www.w3.org/2000/svg" xmlns:xlink="http://www.w3.org/1999/xlink" version="1.1" width="158pt" height="134pt" viewBox="0 0 158 134">
<defs>
<g id="font_1_1"></g>
</defs>
<use data-text="O" xlink:href="#font_1_1" transform="matrix(10,0,0,-10,97.14084,47.329088)" fill="#ff2600"/>
<use data-text="O" xlink:href="#font_1_1" transform="matrix(10,0,0,-10,106.9308,36.809068)" fill="#ff2600"/>
<use data-text="O" xlink:href="#font_1_1" transform="matrix(10,0,0,-10,95.88083,9.929062)" fill="#ff2600"/>
<use data-text="O" xlink:href="#font_1_1" transform="matrix(10,0,0,-10,93.94083,93.72907)" fill="#ff2600"/>
<use data-text="O" xlink:href="#font_1_1" transform="matrix(10,0,0,-10,108.1508,123.53908)" fill="#ff2600"/>
<use data-text="O" xlink:href="#font_1_1" transform="matrix(10,0,0,-10,66.21083,36.63906)" fill="#ff2600"/>
<use data-text="O" xlink:href="#font_1_1" transform="matrix(10,0,0,-10,48.48083,77.90909)" fill="#ff2600"/>
<use data-text="O" xlink:href="#font_1_1" transform="matrix(10,0,0,-10,36.01083,56.309076)" fill="#ff2600"/>
<use data-text="O" xlink:href="#font_1_1" transform="matrix(10,0,0,-10,73.41083,92.309078)" fill="#ff2600"/>
<use data-text="O" xlink:href="#font_1_1" transform="matrix(10,0,0,-10,60.94083,113.90909)" fill="#ff2600"/>
<use data-text="O" xlink:href="#font_1_1" transform="matrix(10,0,0,-10,73.41083,100.94907)" fill="#ff2600"/>
<use data-text="O" xlink:href="#font_1_1" transform="matrix(10,0,0,-10,85.88083,131.17908)" fill="#ff2600"/>
<path transform="matrix(1,0,0,-1,0,134)" d="M92.0302 82.3568 89.76999 81.35001 89.71854 81.72612 95.80934 88.08507 97.67987 85.73962 92.0302 82.3568Z"/>
<path transform="matrix(1,0,0,-1,0,134)" d="M90.06998 67.09448 89.76999 66.95001 89.46999 67.12321V81.17681L89.76999 81.35001 90.06998 81.12821V67.09448Z"/>
<path transform="matrix(1,0,0,-1,0,134)" d="M101.104 58.29467 100.956 57.64534 89.74286 66.58794 89.76999 66.95001 90.06998 67.09448 101.104 58.29467Z"/>
<path transform="matrix(1,0,0,-1,0,134)" d="M114.8624 61.44028 115.2776 60.91973 100.956 57.64534 101.104 58.29467 114.8624 61.44028Z"/>
<path transform="matrix(1,0,0,-1,0,134)" d="M120.9534 74.08031 121.32 74.15001 121.6458 74.13514 115.2776 60.91973 114.8624 61.44028 120.9534 74.08031Z"/>
<path transform="matrix(1,0,0,-1,0,134)" d="M113.2748 87.22272 115.07 87.12001 116.5688 87.38608 121.6458 74.13514 121.32 74.15001 120.031 75.74967 113.2748 87.22272Z"/>
<path transform="matrix(1,0,0,-1,0,134)" d="M114.8214 87.48458 115.07 87.12001 113.2748 87.22272 110.1477 87.93767 110.3398 88.50922 114.8214 87.48458Z"/>
<path transform="matrix(1,0,0,-1,0,134)" d="M116.9133 101.4046 117.5067 101.3154 115.4438 87.58904 115.07 87.12001 114.8214 87.48458 116.9133 101.4046Z"/>
<path transform="matrix(1,0,0,-1,0,134)" d="M128.3604 92.65926 128.5796 92.10075 116.5688 87.38608 115.07 87.12001 115.4438 87.58904 128.3604 92.65926Z"/>
<path transform="matrix(1,0,0,-1,0,134)" d="M107.533 86.48263 107.6869 87.15738 120.031 75.74967 121.32 74.15001 120.9534 74.08031 107.533 86.48263Z"/>
<path transform="matrix(1,0,0,-1,0,134)" d="M107.6869 87.15738 107.533 86.48263 90.06998 81.12821 89.76999 81.35001 92.0302 82.3568 107.6869 87.15738Z"/>
<path transform="matrix(1,0,0,-1,0,134)" d="M108.1191 95.7708 111.0436 95.1017 110.7988 94.5422 108.0962 95.16054 108.1191 95.7708Z"/>
<path transform="matrix(1,0,0,-1,0,134)" d="M108.0098 92.85788 109.8754 92.43105 109.6306 91.87155 107.9869 92.24763 108.0098 92.85788Z"/>
<path transform="matrix(1,0,0,-1,0,134)" d="M107.9005 89.94497 108.7072 89.7604 108.4625 89.20089 107.8776 89.33471 107.9005 89.94497Z"/>
<path transform="matrix(1,0,0,-1,0,134)" d="M97.02842 113.2471 97.17156 113.9329 107.1141 104.7006 106.7058 104.2609 97.02842 113.2471Z"/>
<path transform="matrix(1,0,0,-1,0,134)" d="M97.17338 122.5754 97.76296 122.464 95.98346 113.04 95.39389 113.1513 97.17338 122.5754Z"/>
<path transform="matrix(1,0,0,-1,0,134)" d="M99.71858 122.0948 100.3082 121.9834 98.51613 112.4931 97.92656 112.6044 99.71858 122.0948Z"/>
<path transform="matrix(1,0,0,-1,0,134)" d="M83.60916 108.5469 83.41083 109.1131 97.17156 113.9329 97.02842 113.2471 83.60916 108.5469Z"/>
<path transform="matrix(1,0,0,-1,0,134)" d="M100.4814 48.81323 97.55646 49.4799 97.79719 50.04041 100.5074 49.4227 100.4814 48.81323Z"/>
<path transform="matrix(1,0,0,-1,0,134)" d="M100.6097 51.82807 98.7473 52.25255 98.98804 52.81306 100.6356 52.43754 100.6097 51.82807Z"/>
<path transform="matrix(1,0,0,-1,0,134)" d="M100.7379 54.84291 99.93814 55.0252 100.1789 55.58571 100.7639 55.45238 100.7379 54.84291Z"/>
<path transform="matrix(1,0,0,-1,0,134)" d="M114.7816 28.61281 114.6384 27.92719 101.5761 40.04541 101.9842 40.48527 114.7816 28.61281Z"/>
<path transform="matrix(1,0,0,-1,0,134)" d="M114.5981 19.06972 114.0085 19.18097 115.8272 28.81914 116.4167 28.70789 114.5981 19.06972Z"/>
<path transform="matrix(1,0,0,-1,0,134)" d="M112.0511 19.55032 111.4615 19.66157 113.2928 29.36688 113.8824 29.25563 112.0511 19.55032Z"/>
<path transform="matrix(1,0,0,-1,0,134)" d="M128.0375 33.24604 128.3 33.02 128.2356 32.67971 114.6384 27.92719 114.7816 28.61281 128.0375 33.24604Z"/>
<path transform="matrix(1,0,0,-1,0,134)" d="M130.7175 47.39605 131.2425 46.94398 128.627 33.13447 128.3 33.02 128.0375 33.24604 130.7175 47.39605Z"/>
<path transform="matrix(1,0,0,-1,0,134)" d="M144.6344 52.26031 144.5056 51.57972 131.2425 46.94398 130.7175 47.39605 144.6344 52.26031Z"/>
<path transform="matrix(1,0,0,-1,0,134)" d="M143.9149 49.2638 144.1129 48.69741 133.3466 44.93435 133.1486 45.50074 143.9149 49.2638Z"/>
<path transform="matrix(1,0,0,-1,0,134)" d="M155.817 42.64448 155.163 42.41555 144.5056 51.57972 144.6344 52.26031 155.817 42.64448Z"/>
<path transform="matrix(1,0,0,-1,0,134)" d="M153.0725 28.15397 152.5475 28.60604 155.163 42.41555 155.817 42.64448 153.0725 28.15397Z"/>
<path transform="matrix(1,0,0,-1,0,134)" d="M150.8363 30.27738 150.2468 30.38903 152.3695 41.59675 152.959 41.4851 150.8363 30.27738Z"/>
<path transform="matrix(1,0,0,-1,0,134)" d="M139.1556 23.28971 139.2844 23.9703 152.5475 28.60604 153.0725 28.15397 139.1556 23.28971Z"/>
<path transform="matrix(1,0,0,-1,0,134)" d="M139.2844 23.9703 139.1556 23.28971 128.2356 32.67971 128.3 33.02 128.627 33.13447 139.2844 23.9703Z"/>
<path transform="matrix(1,0,0,-1,0,134)" d="M139.9719 26.79807 139.5807 26.34314 130.9302 33.78166 131.3214 34.23658 139.9719 26.79807Z"/>
<path transform="matrix(1,0,0,-1,0,134)" d="M77.62117 59.58904 77.29999 59.75V60.09641L89.46999 67.12321 89.76999 66.95001 89.74286 66.58794 77.62117 59.58904Z"/>
<path transform="matrix(1,0,0,-1,0,134)" d="M64.85125 66.59132 64.82999 66.95001 65.12998 67.12321 77.29999 60.09641V59.75L76.9788 59.58904 64.85125 66.59132Z"/>
<path transform="matrix(1,0,0,-1,0,134)" d="M64.52999 81.5232 65.12998 81.17681V67.12321L64.82999 66.95001 64.52999 67.14761V81.5232Z"/>
<path transform="matrix(1,0,0,-1,0,134)" d="M77.07024 88.76376 77.29999 88.55V88.20359L65.12998 81.17681 64.52999 81.5232 77.07024 88.76376Z"/>
<path transform="matrix(1,0,0,-1,0,134)" d="M77.29999 88.20359V88.55L77.73144 88.6473 89.71854 81.72612 89.76999 81.35001 89.46999 81.17681 77.29999 88.20359Z"/>
<path transform="matrix(1,0,0,-1,0,134)" d="M83.20098 101.77 85.79902 100.27 77.73144 88.6473 77.29999 88.55 77.07024 88.76376 83.20098 101.77Z"/>
<path transform="matrix(1,0,0,-1,0,134)" d="M71.54554 95.51653 74.14358 97.01659 74.34628 96.44081 71.94286 95.05311 71.54554 95.51653Z"/>
<path transform="matrix(1,0,0,-1,0,134)" d="M73.46844 93.27375 75.12457 94.22998 75.32727 93.65419 73.86576 92.81034 73.46844 93.27375Z"/>
<path transform="matrix(1,0,0,-1,0,134)" d="M75.39134 91.03098 76.10556 91.44337 76.30826 90.86758 75.78866 90.56757 75.39134 91.03098Z"/>
<path transform="matrix(1,0,0,-1,0,134)" d="M57.6921 61.09295 56.19112 63.69047 64.52999 67.14761 64.82999 66.95001 64.85125 66.59132 57.6921 61.09295Z"/>
<path transform="matrix(1,0,0,-1,0,134)" d="M39.89999 66.6036V67.29642L47.95564 62.6452 47.65563 62.1256 39.89999 66.6036Z"/>
<path transform="matrix(1,0,0,-1,0,134)" d="M38.304 66.20172H38.90399V75.8341H38.304Z"/>
<path transform="matrix(1,0,0,-1,0,134)" d="M40.896 66.20172H41.49599V75.8341H40.896Z"/>
<path transform="matrix(1,0,0,-1,0,134)" d="M27.72999 59.5768 27.42999 59.75V60.09641L39.89999 67.29642V66.6036L27.72999 59.5768Z"/>
<path transform="matrix(1,0,0,-1,0,134)" d="M27.72999 45.17681 27.13 45.5232V59.5768L27.42999 59.75 27.72999 59.5768V45.17681Z"/>
<path transform="matrix(1,0,0,-1,0,134)" d="M14.95999 37.8036V38.49642L27.13 45.5232 27.72999 45.17681 14.95999 37.8036Z"/>
<path transform="matrix(1,0,0,-1,0,134)" d="M15.11 40.8831 14.80999 41.4027 24.68811 47.10618 24.98812 46.58658 15.11 40.8831Z"/>
<path transform="matrix(1,0,0,-1,0,134)" d="M2.189995 45.17681 2.789986 45.5232 14.95999 38.49642V37.8036L2.189995 45.17681Z"/>
<path transform="matrix(1,0,0,-1,0,134)" d="M2.189995 59.9232 2.789986 59.5768V45.5232L2.189995 45.17681V59.9232Z"/>
<path transform="matrix(1,0,0,-1,0,134)" d="M4.781994 46.84645H5.3819849V58.25355H4.781994Z"/>
<path transform="matrix(1,0,0,-1,0,134)" d="M14.95999 67.29642V66.6036L2.789986 59.5768 2.189995 59.9232 14.95999 67.29642Z"/>
<path transform="matrix(1,0,0,-1,0,134)" d="M14.95999 66.6036V67.29642L27.42999 60.09641V59.75L27.13 59.5768 14.95999 66.6036Z"/>
<path transform="matrix(1,0,0,-1,0,134)" d="M14.80999 63.69732 15.11 64.21692 24.98812 58.51342 24.68811 57.99382 14.80999 63.69732Z"/>
<path transform="matrix(1,0,0,-1,0,134)" d="M78.79999 50.63408H75.79999L76.9788 59.58904 77.29999 59.75 77.62117 59.58904 78.79999 50.63408Z"/>
<path transform="matrix(1,0,0,-1,0,134)" d="M64.82993 37.80356 64.83005 38.49645 72.46358 42.90394 72.76359 42.38435 64.82993 37.80356Z"/>
<path transform="matrix(1,0,0,-1,0,134)" d="M65.82599 29.03407H66.42598V38.898298H65.82599Z"/>
<path transform="matrix(1,0,0,-1,0,134)" d="M63.23399 29.03407H63.83398V38.8989H63.23399Z"/>
<path transform="matrix(1,0,0,-1,0,134)" d="M52.2199 45.09026 52.52009 45.60975 64.83005 38.49645 64.82993 37.80356 52.2199 45.09026Z"/>
<path transform="matrix(1,0,0,-1,0,134)" d="M91.26999 46.41435H88.26999L88.30992 47.01434H91.23006L91.26999 46.41435Z"/>
<path transform="matrix(1,0,0,-1,0,134)" d="M91.07664 49.31957H88.46333L88.50326 49.91956H91.03671L91.07664 49.31957Z"/>
<path transform="matrix(1,0,0,-1,0,134)" d="M90.8833 52.22479H88.65668L88.69661 52.82478H90.84337L90.8833 52.22479Z"/>
<path transform="matrix(1,0,0,-1,0,134)" d="M90.68995 55.13001H88.85003L88.88996 55.73H90.65002L90.68995 55.13001Z"/>
<path transform="matrix(1,0,0,-1,0,134)" d="M90.49661 58.03523H89.04337L89.0833 58.63522H90.45668L90.49661 58.03523Z"/>
<path transform="matrix(1,0,0,-1,0,134)" d="M90.30326 60.94045H89.23672L89.27665 61.54044H90.26333L90.30326 60.94045Z"/>
<path transform="matrix(1,0,0,-1,0,134)" d="M90.10991 63.84567H89.43006L89.46999 64.44566H90.06998L90.10991 63.84567Z"/>
<path transform="matrix(1,0,0,-1,0,134)" d="M82.02235 39.09022 81.72235 39.60982 89.61998 44.1698 89.91999 43.6502 82.02235 39.09022Z"/>
<path transform="matrix(1,0,0,-1,0,134)" d="M77.59998 13.50681 76.99999 13.85321V31.1941H77.59998V13.50681Z"/>
<path transform="matrix(1,0,0,-1,0,134)" d="M86.00363 10.49751 85.70362 9.977907 77.14998 14.91665 77.44999 15.43625 86.00363 10.49751Z"/>
<path transform="matrix(1,0,0,-1,0,134)" d="M84.70763 8.252906 84.40762 7.733307 75.8541 12.67199 76.15411 13.19158 84.70763 8.252906Z"/>
<path transform="matrix(1,0,0,-1,0,134)" d="M64.97999 6.220211 64.67998 6.739811 76.99999 13.85321 77.59998 13.50681 64.97999 6.220211Z"/>
<path transform="matrix(1,0,0,-1,0,134)" d="M77.04019 113.64 77.55979 113.34 73.05397 105.5362 72.53437 105.8362 77.04019 113.64Z"/>
</svg>

